<?xml version="1.0" encoding="UTF-8"?>
<svg xmlns="http://www.w3.org/2000/svg" viewBox="-170 -7 700 700" role="img" aria-label="Half Leaf">
  <rect x="-170" y="-7" width="700" height="700" rx="96" fill="#16190F"/>
  <path d="M 335.00 19.00 L 327.00 41.00 L 315.00 62.00 L 310.00 68.00 L 295.00 78.00 L 287.00 90.00 L 284.00 102.00 L 286.00 128.00 L 284.00 133.00 L 280.00 137.00 L 276.00 139.00 L 268.00 140.00 L 266.00 142.00 L 266.00 176.00 L 263.00 203.00 L 258.00 219.00 L 254.00 227.00 L 248.00 234.00 L 240.00 231.00 L 227.00 222.00 L 215.00 208.00 L 200.00 186.00 L 194.00 180.00 L 189.00 179.00 L 182.00 181.00 L 169.00 181.00 L 161.00 177.00 L 150.00 166.00 L 142.00 163.00 L 121.00 164.00 L 112.00 160.00 L 102.00 151.00 L 100.00 147.00 L 93.00 140.00 L 89.00 138.00 L 77.00 135.00 L 73.00 135.00 L 71.00 137.00 L 85.00 186.00 L 85.00 197.00 L 73.00 219.00 L 73.00 224.00 L 82.00 241.00 L 87.00 254.00 L 89.00 264.00 L 89.00 280.00 L 87.00 287.00 L 82.00 296.00 L 72.00 305.00 L 55.00 314.00 L 52.00 318.00 L 55.00 322.00 L 62.00 325.00 L 74.00 333.00 L 92.00 350.00 L 101.00 364.00 L 110.00 390.00 L 120.00 403.00 L 129.00 411.00 L 62.00 440.00 L 47.00 443.00 L 20.00 443.00 L 18.00 446.00 L 23.00 452.00 L 46.00 471.00 L 70.00 483.00 L 77.00 488.00 L 83.00 495.00 L 87.00 504.00 L 92.00 510.00 L 108.00 512.00 L 117.00 516.00 L 123.00 522.00 L 128.00 532.00 L 131.00 548.00 L 131.00 555.00 L 133.00 557.00 L 150.00 555.00 L 164.00 555.00 L 165.00 554.00 L 195.00 554.00 L 203.00 558.00 L 207.00 564.00 L 208.00 575.00 L 205.00 586.00 L 198.00 602.00 L 199.00 605.00 L 201.00 606.00 L 234.00 607.00 L 258.00 602.00 L 276.00 595.00 L 289.00 588.00 L 317.00 569.00 L 322.00 581.00 L 322.00 595.00 L 318.00 616.00 L 308.00 643.00 L 308.00 651.00 L 309.00 654.00 L 318.00 662.00 L 330.00 667.00 L 339.00 668.00 L 342.00 666.00 L 342.00 22.00 L 339.00 18.00 Z
    M 335.00 39.00 L 336.00 40.00 L 336.00 660.00 L 332.00 661.00 L 322.00 657.00 L 314.00 649.00 L 314.00 644.00 L 323.00 620.00 L 328.00 595.00 L 327.00 575.00 L 323.00 566.00 L 319.00 561.00 L 314.00 562.00 L 290.00 580.00 L 265.00 593.00 L 250.00 598.00 L 234.00 601.00 L 207.00 600.00 L 206.00 598.00 L 211.00 588.00 L 214.00 577.00 L 213.00 563.00 L 210.00 556.00 L 207.00 553.00 L 196.00 548.00 L 162.00 548.00 L 161.00 549.00 L 138.00 550.00 L 136.00 547.00 L 135.00 535.00 L 132.00 525.00 L 128.00 518.00 L 122.00 512.00 L 113.00 507.00 L 104.00 505.00 L 96.00 505.00 L 90.00 494.00 L 82.00 484.00 L 74.00 478.00 L 56.00 470.00 L 42.00 460.00 L 31.00 450.00 L 32.00 449.00 L 55.00 448.00 L 70.00 444.00 L 99.00 430.00 L 128.00 419.00 L 139.00 413.00 L 138.00 409.00 L 128.00 402.00 L 115.00 386.00 L 108.00 364.00 L 98.00 347.00 L 83.00 332.00 L 62.00 318.00 L 77.00 309.00 L 85.00 302.00 L 92.00 291.00 L 95.00 280.00 L 95.00 262.00 L 93.00 253.00 L 88.00 239.00 L 79.00 221.00 L 88.00 206.00 L 91.00 198.00 L 90.00 180.00 L 79.00 143.00 L 82.00 142.00 L 89.00 145.00 L 104.00 162.00 L 116.00 169.00 L 144.00 170.00 L 156.00 181.00 L 168.00 187.00 L 177.00 188.00 L 191.00 186.00 L 210.00 212.00 L 223.00 227.00 L 244.00 240.00 L 252.00 239.00 L 258.00 233.00 L 263.00 223.00 L 269.00 204.00 L 272.00 181.00 L 272.00 146.00 L 284.00 142.00 L 290.00 136.00 L 292.00 130.00 L 292.00 118.00 L 290.00 104.00 L 293.00 91.00 L 303.00 80.00 L 309.00 77.00 L 316.00 71.00 L 326.00 57.00 Z
    M 139.00 235.00 L 139.00 237.00 L 148.00 249.00 L 149.00 249.00 L 162.00 263.00 L 162.00 264.00 L 165.00 266.00 L 208.00 319.00 L 281.00 418.00 L 285.00 425.00 L 302.00 448.00 L 323.00 481.00 L 326.00 482.00 L 327.00 481.00 L 327.00 476.00 L 323.00 469.00 L 323.00 467.00 L 321.00 465.00 L 316.00 454.00 L 314.00 452.00 L 312.00 447.00 L 303.00 433.00 L 295.00 417.00 L 291.00 412.00 L 289.00 407.00 L 287.00 405.00 L 280.00 392.00 L 280.00 358.00 L 281.00 357.00 L 281.00 333.00 L 282.00 332.00 L 282.00 323.00 L 283.00 322.00 L 283.00 312.00 L 281.00 312.00 L 279.00 316.00 L 279.00 318.00 L 274.00 328.00 L 274.00 330.00 L 270.00 338.00 L 270.00 341.00 L 267.00 348.00 L 267.00 353.00 L 266.00 354.00 L 266.00 365.00 L 269.00 374.00 L 269.00 377.00 L 268.00 378.00 L 241.00 340.00 L 218.00 313.00 L 218.00 312.00 L 217.00 312.00 L 209.00 303.00 L 209.00 302.00 L 174.00 266.00 L 173.00 266.00 L 146.00 240.00 Z
    M 116.00 453.00 L 116.00 454.00 L 119.00 456.00 L 121.00 456.00 L 122.00 457.00 L 124.00 457.00 L 125.00 458.00 L 127.00 458.00 L 128.00 459.00 L 130.00 459.00 L 131.00 460.00 L 133.00 460.00 L 134.00 461.00 L 136.00 461.00 L 137.00 462.00 L 139.00 462.00 L 140.00 463.00 L 142.00 463.00 L 143.00 464.00 L 145.00 464.00 L 146.00 465.00 L 149.00 465.00 L 152.00 467.00 L 154.00 467.00 L 155.00 468.00 L 157.00 468.00 L 158.00 469.00 L 161.00 469.00 L 164.00 471.00 L 166.00 471.00 L 167.00 472.00 L 169.00 472.00 L 170.00 473.00 L 172.00 473.00 L 175.00 475.00 L 177.00 475.00 L 178.00 476.00 L 180.00 476.00 L 181.00 477.00 L 183.00 477.00 L 184.00 478.00 L 186.00 478.00 L 189.00 480.00 L 192.00 480.00 L 193.00 481.00 L 194.00 481.00 L 197.00 483.00 L 199.00 483.00 L 200.00 484.00 L 202.00 484.00 L 203.00 485.00 L 205.00 485.00 L 208.00 487.00 L 210.00 487.00 L 213.00 489.00 L 215.00 489.00 L 216.00 490.00 L 218.00 490.00 L 221.00 492.00 L 223.00 492.00 L 226.00 494.00 L 228.00 494.00 L 231.00 496.00 L 233.00 496.00 L 234.00 497.00 L 235.00 497.00 L 238.00 499.00 L 240.00 499.00 L 243.00 501.00 L 245.00 501.00 L 248.00 503.00 L 250.00 503.00 L 251.00 504.00 L 252.00 504.00 L 255.00 506.00 L 257.00 506.00 L 258.00 507.00 L 259.00 507.00 L 262.00 509.00 L 264.00 509.00 L 265.00 510.00 L 266.00 510.00 L 267.00 511.00 L 268.00 511.00 L 271.00 513.00 L 273.00 513.00 L 274.00 514.00 L 275.00 514.00 L 276.00 515.00 L 277.00 515.00 L 280.00 517.00 L 282.00 517.00 L 284.00 519.00 L 286.00 519.00 L 287.00 520.00 L 288.00 520.00 L 289.00 521.00 L 291.00 521.00 L 292.00 522.00 L 295.00 522.00 L 295.00 520.00 L 293.00 518.00 L 292.00 518.00 L 291.00 517.00 L 291.00 516.00 L 290.00 516.00 L 287.00 513.00 L 286.00 513.00 L 279.00 507.00 L 278.00 507.00 L 276.00 505.00 L 273.00 504.00 L 268.00 500.00 L 267.00 500.00 L 266.00 499.00 L 263.00 498.00 L 261.00 496.00 L 260.00 496.00 L 259.00 495.00 L 256.00 494.00 L 254.00 492.00 L 253.00 492.00 L 252.00 491.00 L 251.00 491.00 L 250.00 490.00 L 249.00 490.00 L 248.00 489.00 L 247.00 489.00 L 244.00 487.00 L 242.00 487.00 L 241.00 486.00 L 240.00 486.00 L 239.00 485.00 L 238.00 485.00 L 235.00 483.00 L 233.00 483.00 L 230.00 481.00 L 228.00 481.00 L 227.00 480.00 L 226.00 480.00 L 225.00 479.00 L 223.00 479.00 L 220.00 477.00 L 218.00 477.00 L 217.00 476.00 L 215.00 476.00 L 214.00 475.00 L 212.00 475.00 L 209.00 473.00 L 206.00 473.00 L 205.00 472.00 L 203.00 472.00 L 202.00 471.00 L 200.00 471.00 L 199.00 470.00 L 197.00 470.00 L 194.00 468.00 L 191.00 468.00 L 190.00 467.00 L 187.00 467.00 L 186.00 466.00 L 184.00 466.00 L 183.00 465.00 L 180.00 465.00 L 179.00 464.00 L 177.00 464.00 L 176.00 463.00 L 173.00 463.00 L 172.00 462.00 L 168.00 462.00 L 167.00 461.00 L 164.00 461.00 L 163.00 460.00 L 159.00 460.00 L 158.00 459.00 L 155.00 459.00 L 154.00 458.00 L 150.00 458.00 L 149.00 457.00 L 144.00 457.00 L 143.00 456.00 L 139.00 456.00 L 138.00 455.00 L 133.00 455.00 L 132.00 454.00 L 128.00 454.00 L 127.00 453.00 L 121.00 453.00 L 120.00 452.00 L 117.00 452.00 Z
    M 156.00 378.00 L 156.00 380.00 L 158.00 380.00 L 159.00 381.00 L 161.00 381.00 L 162.00 382.00 L 165.00 382.00 L 166.00 383.00 L 168.00 383.00 L 169.00 384.00 L 172.00 384.00 L 173.00 385.00 L 176.00 385.00 L 177.00 386.00 L 180.00 386.00 L 181.00 387.00 L 184.00 387.00 L 185.00 388.00 L 187.00 388.00 L 188.00 389.00 L 190.00 389.00 L 191.00 390.00 L 193.00 390.00 L 194.00 391.00 L 197.00 391.00 L 198.00 392.00 L 200.00 392.00 L 201.00 393.00 L 202.00 393.00 L 203.00 394.00 L 205.00 394.00 L 206.00 395.00 L 208.00 395.00 L 209.00 396.00 L 211.00 396.00 L 212.00 397.00 L 213.00 397.00 L 214.00 398.00 L 215.00 398.00 L 216.00 399.00 L 218.00 399.00 L 219.00 400.00 L 220.00 400.00 L 221.00 401.00 L 222.00 401.00 L 223.00 402.00 L 224.00 402.00 L 225.00 403.00 L 226.00 403.00 L 227.00 404.00 L 228.00 404.00 L 229.00 405.00 L 232.00 405.00 L 232.00 402.00 L 231.00 401.00 L 231.00 400.00 L 229.00 398.00 L 229.00 397.00 L 223.00 391.00 L 222.00 391.00 L 219.00 388.00 L 218.00 388.00 L 217.00 387.00 L 216.00 387.00 L 215.00 386.00 L 213.00 386.00 L 212.00 385.00 L 211.00 385.00 L 210.00 384.00 L 208.00 384.00 L 207.00 383.00 L 205.00 383.00 L 204.00 382.00 L 201.00 382.00 L 200.00 381.00 L 196.00 381.00 L 195.00 380.00 L 190.00 380.00 L 189.00 379.00 L 183.00 379.00 L 182.00 378.00 L 170.00 378.00 L 169.00 377.00 L 157.00 377.00 Z
    M 285.00 246.00 L 285.00 247.00 L 284.00 248.00 L 285.00 249.00 L 285.00 250.00 L 286.00 251.00 L 286.00 252.00 L 287.00 253.00 L 287.00 255.00 L 288.00 256.00 L 288.00 257.00 L 289.00 258.00 L 289.00 259.00 L 290.00 260.00 L 290.00 261.00 L 291.00 262.00 L 291.00 263.00 L 292.00 264.00 L 292.00 265.00 L 293.00 266.00 L 293.00 268.00 L 294.00 269.00 L 294.00 270.00 L 295.00 271.00 L 295.00 272.00 L 296.00 273.00 L 296.00 274.00 L 297.00 275.00 L 297.00 276.00 L 298.00 277.00 L 298.00 279.00 L 299.00 280.00 L 299.00 281.00 L 300.00 282.00 L 300.00 283.00 L 301.00 284.00 L 301.00 285.00 L 302.00 286.00 L 302.00 287.00 L 303.00 288.00 L 303.00 290.00 L 304.00 291.00 L 304.00 292.00 L 305.00 293.00 L 305.00 294.00 L 306.00 295.00 L 306.00 296.00 L 307.00 297.00 L 307.00 298.00 L 308.00 299.00 L 308.00 300.00 L 309.00 301.00 L 309.00 302.00 L 310.00 303.00 L 310.00 304.00 L 311.00 305.00 L 311.00 306.00 L 312.00 307.00 L 312.00 309.00 L 313.00 310.00 L 313.00 311.00 L 315.00 311.00 L 316.00 310.00 L 316.00 302.00 L 315.00 301.00 L 315.00 297.00 L 314.00 296.00 L 314.00 293.00 L 313.00 292.00 L 313.00 290.00 L 312.00 289.00 L 312.00 287.00 L 311.00 286.00 L 311.00 284.00 L 310.00 283.00 L 310.00 282.00 L 309.00 281.00 L 309.00 280.00 L 308.00 279.00 L 308.00 277.00 L 306.00 275.00 L 306.00 273.00 L 305.00 272.00 L 305.00 271.00 L 304.00 270.00 L 304.00 269.00 L 302.00 267.00 L 302.00 266.00 L 301.00 265.00 L 301.00 264.00 L 299.00 262.00 L 299.00 261.00 L 298.00 260.00 L 298.00 259.00 L 295.00 256.00 L 295.00 255.00 L 290.00 250.00 L 290.00 249.00 L 289.00 248.00 L 288.00 248.00 L 286.00 246.00 Z
    M 193.00 425.00 L 193.00 429.00 L 194.00 430.00 L 194.00 432.00 L 195.00 433.00 L 195.00 435.00 L 196.00 436.00 L 196.00 437.00 L 197.00 438.00 L 197.00 440.00 L 198.00 441.00 L 198.00 442.00 L 199.00 443.00 L 199.00 444.00 L 200.00 445.00 L 200.00 446.00 L 201.00 447.00 L 201.00 448.00 L 203.00 450.00 L 203.00 451.00 L 205.00 453.00 L 205.00 454.00 L 208.00 457.00 L 208.00 458.00 L 217.00 467.00 L 218.00 467.00 L 220.00 469.00 L 221.00 469.00 L 222.00 470.00 L 223.00 470.00 L 224.00 471.00 L 225.00 471.00 L 226.00 472.00 L 228.00 472.00 L 229.00 473.00 L 236.00 473.00 L 236.00 471.00 L 232.00 467.00 L 231.00 467.00 L 209.00 445.00 L 209.00 444.00 L 206.00 441.00 L 206.00 440.00 L 202.00 436.00 L 202.00 435.00 L 200.00 433.00 L 200.00 432.00 L 198.00 430.00 L 198.00 429.00 L 196.00 427.00 L 196.00 426.00 L 195.00 425.00 Z
    M 294.00 162.00 L 293.00 163.00 L 293.00 166.00 L 294.00 167.00 L 294.00 168.00 L 295.00 169.00 L 295.00 171.00 L 296.00 172.00 L 296.00 173.00 L 297.00 174.00 L 297.00 176.00 L 298.00 177.00 L 298.00 178.00 L 299.00 179.00 L 299.00 181.00 L 300.00 182.00 L 300.00 183.00 L 301.00 184.00 L 301.00 186.00 L 302.00 187.00 L 302.00 188.00 L 303.00 189.00 L 303.00 191.00 L 304.00 192.00 L 304.00 193.00 L 305.00 194.00 L 305.00 196.00 L 306.00 197.00 L 306.00 198.00 L 307.00 199.00 L 307.00 201.00 L 308.00 202.00 L 308.00 204.00 L 309.00 205.00 L 309.00 206.00 L 310.00 207.00 L 310.00 208.00 L 311.00 209.00 L 311.00 211.00 L 312.00 212.00 L 312.00 213.00 L 313.00 214.00 L 313.00 216.00 L 315.00 218.00 L 316.00 218.00 L 317.00 217.00 L 317.00 202.00 L 316.00 201.00 L 316.00 198.00 L 315.00 197.00 L 315.00 194.00 L 314.00 193.00 L 314.00 192.00 L 313.00 191.00 L 313.00 189.00 L 312.00 188.00 L 312.00 186.00 L 311.00 185.00 L 311.00 184.00 L 310.00 183.00 L 310.00 182.00 L 309.00 181.00 L 309.00 180.00 L 308.00 179.00 L 308.00 178.00 L 306.00 176.00 L 306.00 175.00 L 305.00 174.00 L 305.00 173.00 L 302.00 170.00 L 302.00 169.00 L 296.00 163.00 L 295.00 163.00 Z
    M 122.00 292.00 L 122.00 293.00 L 124.00 295.00 L 125.00 295.00 L 127.00 297.00 L 128.00 297.00 L 130.00 299.00 L 131.00 299.00 L 133.00 301.00 L 134.00 301.00 L 137.00 304.00 L 138.00 304.00 L 140.00 306.00 L 141.00 306.00 L 143.00 308.00 L 144.00 308.00 L 146.00 310.00 L 147.00 310.00 L 149.00 312.00 L 150.00 312.00 L 152.00 314.00 L 153.00 314.00 L 156.00 317.00 L 157.00 317.00 L 159.00 319.00 L 160.00 319.00 L 162.00 321.00 L 163.00 321.00 L 165.00 323.00 L 166.00 323.00 L 167.00 324.00 L 169.00 324.00 L 169.00 319.00 L 168.00 318.00 L 168.00 317.00 L 166.00 315.00 L 166.00 314.00 L 165.00 313.00 L 165.00 312.00 L 164.00 312.00 L 163.00 311.00 L 163.00 310.00 L 162.00 310.00 L 156.00 304.00 L 155.00 304.00 L 153.00 302.00 L 152.00 302.00 L 151.00 301.00 L 150.00 301.00 L 148.00 299.00 L 147.00 299.00 L 146.00 298.00 L 145.00 298.00 L 144.00 297.00 L 142.00 297.00 L 141.00 296.00 L 140.00 296.00 L 139.00 295.00 L 138.00 295.00 L 137.00 294.00 L 135.00 294.00 L 134.00 293.00 L 132.00 293.00 L 131.00 292.00 L 127.00 292.00 L 126.00 291.00 L 123.00 291.00 Z
    M 187.00 489.00 L 185.00 489.00 L 184.00 488.00 L 177.00 488.00 L 176.00 487.00 L 171.00 487.00 L 170.00 488.00 L 163.00 488.00 L 162.00 489.00 L 160.00 489.00 L 159.00 490.00 L 157.00 490.00 L 156.00 491.00 L 154.00 491.00 L 153.00 492.00 L 152.00 492.00 L 151.00 493.00 L 149.00 493.00 L 147.00 495.00 L 146.00 495.00 L 144.00 497.00 L 143.00 497.00 L 137.00 503.00 L 137.00 505.00 L 138.00 506.00 L 139.00 505.00 L 142.00 505.00 L 143.00 504.00 L 146.00 504.00 L 147.00 503.00 L 149.00 503.00 L 150.00 502.00 L 153.00 502.00 L 154.00 501.00 L 157.00 501.00 L 158.00 500.00 L 160.00 500.00 L 161.00 499.00 L 164.00 499.00 L 165.00 498.00 L 167.00 498.00 L 168.00 497.00 L 171.00 497.00 L 172.00 496.00 L 174.00 496.00 L 175.00 495.00 L 177.00 495.00 L 178.00 494.00 L 181.00 494.00 L 182.00 493.00 L 185.00 493.00 L 186.00 492.00 L 187.00 492.00 Z" fill="#E8B23A" fill-rule="evenodd"/>
</svg>
